<svg width="20" height="20" viewBox="0 0 20 20" fill="none" xmlns="http://www.w3.org/2000/svg">
<path d="M1.875 7.5C1.875 3.125 6.25 3.125 10 3.125C13.75 3.125 18.125 3.125 18.125 7.5C18.125 12.5 13.75 6.875 13.75 6.875H6.25C6.25 6.875 1.875 12.5 1.875 7.5ZM6.875 8.75C6.875 8.75 3.75 11.875 3.75 17.5H16.25C16.25 11.875 13.125 8.75 13.125 8.75H6.875Z" stroke="#F5F5F5" stroke-width="1.5" stroke-linecap="round" stroke-linejoin="round"/>
<path d="M10 15.625C11.3807 15.625 12.5 14.5057 12.5 13.125C12.5 11.7443 11.3807 10.625 10 10.625C8.61929 10.625 7.5 11.7443 7.5 13.125C7.5 14.5057 8.61929 15.625 10 15.625Z" stroke="#F5F5F5" stroke-width="1.5" stroke-linecap="round" stroke-linejoin="round"/>
</svg>
