<svg width="25" height="24" viewBox="0 0 25 24" fill="none" xmlns="http://www.w3.org/2000/svg">
<path d="M22.1081 8.70968C23.3581 7.45968 22.7881 5.99968 22.1081 5.28968L19.1081 2.28968C17.8481 1.03968 16.3981 1.60968 15.6881 2.28968L13.9881 3.99968H11.3981C9.49812 3.99968 8.39812 4.99968 7.83812 6.14968L3.39812 10.5897V14.5897L2.68812 15.2897C1.43812 16.5497 2.00812 17.9997 2.68812 18.7097L5.68812 21.7097C6.22812 22.2497 6.80812 22.4497 7.35812 22.4497C8.06812 22.4497 8.71812 22.0997 9.10812 21.7097L11.8081 18.9997H15.3981C17.0981 18.9997 17.9581 17.9397 18.2681 16.8997C19.3981 16.5997 20.0181 15.7397 20.2681 14.8997C21.8181 14.4997 22.3981 13.0297 22.3981 11.9997V8.99968H21.8081L22.1081 8.70968ZM20.3981 11.9997C20.3981 12.4497 20.2081 12.9997 19.3981 12.9997H18.3981V13.9997C18.3981 14.4497 18.2081 14.9997 17.3981 14.9997H16.3981V15.9997C16.3981 16.4497 16.2081 16.9997 15.3981 16.9997H10.9881L7.70812 20.2797C7.39812 20.5697 7.21812 20.3997 7.10812 20.2897L4.11812 17.3097C3.82812 16.9997 3.99812 16.8197 4.10812 16.7097L5.39812 15.4097V11.4097L7.39812 9.40968V10.9997C7.39812 12.2097 8.19812 13.9997 10.3981 13.9997C12.5981 13.9997 13.3981 12.2097 13.3981 10.9997H20.3981V11.9997ZM20.6881 7.28968L18.9881 8.99968H11.3981V10.9997C11.3981 11.4497 11.2081 11.9997 10.3981 11.9997C9.58812 11.9997 9.39812 11.4497 9.39812 10.9997V7.99968C9.39812 7.53968 9.56812 5.99968 11.3981 5.99968H14.8081L17.0881 3.71968C17.3981 3.42968 17.5781 3.59968 17.6881 3.70968L20.6781 6.68968C20.9681 6.99968 20.7981 7.17968 20.6881 7.28968Z" fill="#F06432"/>
</svg>
