<svg width="25" height="24" viewBox="0 0 25 24" fill="none" xmlns="http://www.w3.org/2000/svg">
<path d="M7.60156 5C7.60156 3.93913 8.02299 2.92172 8.77314 2.17157C9.52328 1.42143 10.5407 1 11.6016 1C12.6624 1 13.6798 1.42143 14.43 2.17157C15.1801 2.92172 15.6016 3.93913 15.6016 5H18.6016C18.8668 5 19.1211 5.10536 19.3087 5.29289C19.4962 5.48043 19.6016 5.73478 19.6016 6V9C20.6624 9 21.6798 9.42143 22.43 10.1716C23.1801 10.9217 23.6016 11.9391 23.6016 13C23.6016 14.0609 23.1801 15.0783 22.43 15.8284C21.6798 16.5786 20.6624 17 19.6016 17V20C19.6016 20.2652 19.4962 20.5196 19.3087 20.7071C19.1211 20.8946 18.8668 21 18.6016 21H4.60156C4.33635 21 4.08199 20.8946 3.89446 20.7071C3.70692 20.5196 3.60156 20.2652 3.60156 20V6C3.60156 5.73478 3.70692 5.48043 3.89446 5.29289C4.08199 5.10536 4.33635 5 4.60156 5H7.60156ZM11.6016 3C11.2815 2.99992 10.9661 3.07664 10.6819 3.22372C10.3977 3.3708 10.1529 3.58394 9.96811 3.84524C9.78333 4.10654 9.66395 4.40837 9.62001 4.72537C9.57606 5.04237 9.60883 5.36529 9.71556 5.667C9.76886 5.81791 9.78515 5.9794 9.76308 6.13791C9.74101 6.29643 9.68121 6.44733 9.58872 6.57793C9.49623 6.70854 9.37374 6.81504 9.23154 6.88848C9.08935 6.96193 8.9316 7.00017 8.77156 7H5.60156V19H17.6016V15.83C17.6014 15.67 17.6396 15.5122 17.7131 15.37C17.7865 15.2278 17.893 15.1053 18.0236 15.0128C18.1542 14.9203 18.3051 14.8606 18.4636 14.8385C18.6222 14.8164 18.7837 14.8327 18.9346 14.886C19.2362 14.9922 19.5588 15.0245 19.8755 14.9803C20.1921 14.936 20.4936 14.8165 20.7545 14.6317C21.0155 14.447 21.2283 14.2023 21.3752 13.9183C21.5221 13.6343 21.5987 13.3192 21.5987 12.9995C21.5987 12.6798 21.5221 12.3647 21.3752 12.0807C21.2283 11.7967 21.0155 11.552 20.7545 11.3673C20.4936 11.1825 20.1921 11.063 19.8755 11.0187C19.5588 10.9745 19.2362 11.0068 18.9346 11.113C18.7839 11.1662 18.6227 11.1825 18.4644 11.1606C18.3061 11.1387 18.1554 11.0792 18.0249 10.987C17.8943 10.8949 17.7878 10.7728 17.7141 10.631C17.6405 10.4892 17.6019 10.3318 17.6016 10.172V7H14.4316C14.2715 7.00017 14.1138 6.96193 13.9716 6.88848C13.8294 6.81504 13.7069 6.70854 13.6144 6.57793C13.5219 6.44733 13.4621 6.29643 13.44 6.13791C13.418 5.9794 13.4343 5.81791 13.4876 5.667C13.5943 5.36529 13.6271 5.04237 13.5831 4.72537C13.5392 4.40837 13.4198 4.10654 13.235 3.84524C13.0502 3.58394 12.8054 3.3708 12.5212 3.22372C12.237 3.07664 11.9216 2.99992 11.6016 3Z" fill="#F06432"/>
</svg>
