<svg width="20" height="20" viewBox="0 0 20 20" fill="none" xmlns="http://www.w3.org/2000/svg">
<path d="M0.429234 9.88041C0.428765 11.5608 0.871153 13.2016 1.71235 14.6478L0.348785 19.589L5.44374 18.2631C6.85294 19.0245 8.43184 19.4235 10.0363 19.4236H10.0405C15.3372 19.4236 19.6489 15.1458 19.6512 9.88793C19.6522 7.3401 18.6534 4.94428 16.8387 3.1418C15.0243 1.33948 12.6112 0.346378 10.0402 0.345215C4.74283 0.345215 0.431499 4.62273 0.429312 9.88041" fill="url(#paint0_linear_461_352)"/>
<path d="M0.0861055 9.87721C0.0855588 11.6181 0.543802 13.3175 1.41499 14.8155L0.00253296 19.9339L5.28018 18.5605C6.73434 19.3474 8.37158 19.7622 10.0376 19.7629H10.0419C15.5286 19.7629 19.9951 15.3312 19.9975 9.88512C19.9984 7.24574 18.9637 4.7638 17.0841 2.89674C15.2044 1.02992 12.705 0.00108527 10.0419 0C4.55419 0 0.0882924 4.43101 0.0861055 9.87721ZM3.22906 14.5575L3.032 14.2471C2.20361 12.9398 1.76638 11.4291 1.76701 9.87783C1.7688 5.35109 5.48067 1.66822 10.045 1.66822C12.2554 1.66915 14.3326 2.52434 15.8951 4.07597C17.4574 5.62775 18.3171 7.69054 18.3166 9.8845C18.3145 14.4112 14.6026 18.0946 10.0419 18.0946H10.0386C8.55357 18.0938 7.09714 17.698 5.82699 16.95L5.52472 16.7721L2.39286 17.5871L3.22906 14.5574V14.5575Z" fill="url(#paint1_linear_461_352)"/>
<path d="M7.5536 5.74776C7.36724 5.33668 7.17111 5.32838 6.99389 5.32117C6.84877 5.31497 6.68288 5.31544 6.51714 5.31544C6.35124 5.31544 6.0817 5.37738 5.85387 5.62427C5.6258 5.87141 4.98315 6.46862 4.98315 7.68327C4.98315 8.898 5.87457 10.0719 5.99883 10.2368C6.12326 10.4013 7.71972 12.9737 10.2481 13.9633C12.3495 14.7857 12.7771 14.6222 13.2332 14.5809C13.6893 14.5399 14.705 13.9839 14.9122 13.4074C15.1196 12.8309 15.1196 12.3368 15.0574 12.2336C14.9952 12.1307 14.8293 12.0689 14.5806 11.9455C14.3317 11.822 13.1087 11.2247 12.8808 11.1423C12.6527 11.06 12.4869 11.0189 12.321 11.2661C12.1551 11.513 11.6787 12.0689 11.5335 12.2336C11.3885 12.3986 11.2433 12.4192 10.9946 12.2957C10.7457 12.1718 9.94455 11.9114 8.99409 11.0704C8.25459 10.416 7.75534 9.60784 7.61022 9.36063C7.4651 9.11381 7.59468 8.98001 7.71941 8.85699C7.83118 8.74637 7.96826 8.56869 8.09276 8.42459C8.21679 8.2804 8.25818 8.17753 8.34113 8.01288C8.42416 7.84807 8.3826 7.70389 8.32051 7.5804C8.25818 7.45691 7.77479 6.2359 7.5536 5.74776Z" fill="white"/>
<defs>
<linearGradient id="paint0_linear_461_352" x1="965.467" y1="1924.73" x2="965.467" y2="0.345215" gradientUnits="userSpaceOnUse">
<stop stop-color="#1FAF38"/>
<stop offset="1" stop-color="#60D669"/>
</linearGradient>
<linearGradient id="paint1_linear_461_352" x1="999.749" y1="1993.39" x2="999.749" y2="0" gradientUnits="userSpaceOnUse">
<stop stop-color="#F9F9F9"/>
<stop offset="1" stop-color="white"/>
</linearGradient>
</defs>
</svg>
