<svg width="20" height="20" viewBox="0 0 20 20" fill="none" xmlns="http://www.w3.org/2000/svg">
<path d="M10 0C7.34844 0 4.80312 1.05422 2.92969 2.92891C1.05432 4.80434 0.000519484 7.34778 0 10C0 12.6511 1.05469 15.1964 2.92969 17.0711C4.80312 18.9458 7.34844 20 10 20C12.6516 20 15.1969 18.9458 17.0703 17.0711C18.9453 15.1964 20 12.6511 20 10C20 7.34891 18.9453 4.80359 17.0703 2.92891C15.1969 1.05422 12.6516 0 10 0Z" fill="url(#paint0_linear_461_339)"/>
<path d="M4.52656 9.89453C7.44219 8.62453 9.38594 7.78719 10.3578 7.38266C13.1359 6.2275 13.7125 6.02688 14.0891 6.02008C14.1719 6.01875 14.3562 6.03922 14.4766 6.13648C14.5766 6.21852 14.6047 6.32945 14.6187 6.40734C14.6312 6.48516 14.6484 6.6625 14.6344 6.80094C14.4844 8.38219 13.8328 12.2194 13.5016 13.9905C13.3625 14.7398 13.0859 14.9911 12.8187 15.0156C12.2375 15.0691 11.7969 14.6319 11.2344 14.2633C10.3547 13.6862 9.85781 13.3272 9.00312 12.7642C8.01562 12.1136 8.65625 11.7559 9.21875 11.1716C9.36562 11.0186 11.925 8.69125 11.9734 8.48016C11.9797 8.45375 11.9859 8.35531 11.9266 8.30344C11.8687 8.25141 11.7828 8.26922 11.7203 8.28328C11.6312 8.30328 10.2266 9.23266 7.50156 11.0713C7.10312 11.3453 6.74219 11.4789 6.41719 11.4719C6.06094 11.4642 5.37344 11.27 4.8625 11.1041C4.2375 10.9005 3.73906 10.7928 3.78281 10.447C3.80469 10.267 4.05312 10.0828 4.52656 9.89453Z" fill="white"/>
<defs>
<linearGradient id="paint0_linear_461_339" x1="1000" y1="0" x2="1000" y2="2000" gradientUnits="userSpaceOnUse">
<stop stop-color="#2AABEE"/>
<stop offset="1" stop-color="#229ED9"/>
</linearGradient>
</defs>
</svg>
