<svg width="25" height="24" viewBox="0 0 25 24" fill="none" xmlns="http://www.w3.org/2000/svg">
<path fill-rule="evenodd" clip-rule="evenodd" d="M9.78547 15C10.3159 15.0001 10.8245 15.2109 11.1995 15.586L12.1995 16.586L13.1995 15.586C13.5745 15.2109 14.0831 15.0001 14.6135 15H18.6375C19.3064 15.0001 19.9561 15.2237 20.4833 15.6354C21.0106 16.047 21.3851 16.6231 21.5475 17.272L22.1695 19.758C22.2039 19.8862 22.2124 20.02 22.1945 20.1516C22.1767 20.2831 22.1328 20.4098 22.0655 20.5243C21.9982 20.6387 21.9087 20.7386 21.8024 20.8181C21.6961 20.8975 21.575 20.9551 21.4462 20.9873C21.3174 21.0195 21.1834 21.0257 21.0522 21.0056C20.921 20.9855 20.7951 20.9395 20.6818 20.8702C20.5685 20.8009 20.4702 20.7098 20.3926 20.6021C20.3149 20.4944 20.2595 20.3723 20.2295 20.243L19.6085 17.758C19.5545 17.5416 19.4297 17.3494 19.2539 17.212C19.0782 17.0747 18.8615 17.0001 18.6385 17H14.6135L13.6135 18C13.2384 18.3749 12.7298 18.5856 12.1995 18.5856C11.6691 18.5856 11.1605 18.3749 10.7855 18L9.78547 17H5.76147C5.53841 17.0001 5.32177 17.0747 5.14601 17.212C4.97024 17.3494 4.84545 17.5416 4.79147 17.758L4.16947 20.243C4.13948 20.3723 4.08404 20.4944 4.00638 20.6021C3.92872 20.7098 3.83039 20.8009 3.71714 20.8702C3.60388 20.9395 3.47797 20.9855 3.34673 21.0056C3.2155 21.0257 3.08158 21.0195 2.95278 20.9873C2.82398 20.9551 2.70288 20.8975 2.59654 20.8181C2.49021 20.7386 2.40077 20.6387 2.33344 20.5243C2.26611 20.4098 2.22224 20.2831 2.20439 20.1516C2.18654 20.02 2.19507 19.8862 2.22947 19.758L2.85047 17.272C3.01279 16.6231 3.38734 16.047 3.91459 15.6354C4.44184 15.2237 5.09155 15.0001 5.76047 15H9.78547ZM12.1995 2C12.9835 2 13.8605 2.19 14.5795 2.391C16.2425 2.854 17.1995 4.41 17.1995 5.997V10.003C17.1995 11.591 16.2425 13.146 14.5795 13.609C13.8605 13.809 12.9835 14 12.1995 14C11.4155 14 10.5385 13.81 9.81947 13.609C8.15647 13.146 7.19947 11.591 7.19947 10.003V5.997C7.19947 4.41 8.15647 2.854 9.81947 2.391C10.5385 2.191 11.4155 2 12.1995 2ZM12.1995 4C11.6905 4 11.0225 4.132 10.3565 4.318C9.68847 4.504 9.19947 5.165 9.19947 5.997V10.003C9.19947 10.835 9.68847 11.496 10.3565 11.683C11.0225 11.868 11.6905 12 12.1995 12C12.7085 12 13.3765 11.868 14.0425 11.682C14.7105 11.496 15.1995 10.835 15.1995 10.003V5.997C15.1995 5.165 14.7105 4.504 14.0425 4.317C13.3765 4.133 12.7095 4 12.1995 4Z" fill="#F06432"/>
</svg>
