<svg width="25" height="24" viewBox="0 0 25 24" fill="none" xmlns="http://www.w3.org/2000/svg">
<path d="M12.8017 14.9507C14.4314 14.9507 15.7518 13.6303 15.7518 12.0005C15.7518 10.3708 14.4314 9.05078 12.8017 9.05078C11.1719 9.05078 9.85156 10.3708 9.85156 12.0005C9.85156 13.6303 11.1719 14.9507 12.8017 14.9507ZM10.5873 11.0829C10.6052 11.0393 10.6056 10.9904 10.5882 10.9466C10.5709 10.9027 10.5372 10.8673 10.4943 10.8478C10.5176 10.8013 10.5416 10.7555 10.5674 10.7109L11.9002 11.5865L12.3003 11.7703C12.2945 11.783 12.2892 11.796 12.2846 11.8093L11.8683 11.6552L10.3106 11.333C10.3241 11.2832 10.3376 11.2337 10.3541 11.1849C10.3986 11.2013 10.4477 11.1999 10.4912 11.1808C10.5347 11.1618 10.5691 11.1267 10.5873 11.0829ZM11.6486 9.69391C11.6672 9.73866 11.7029 9.77418 11.7477 9.79264C11.7925 9.8111 11.8429 9.81099 11.8876 9.79234C11.9324 9.7737 11.9679 9.73803 11.9864 9.6932C12.0048 9.64837 12.0047 9.59804 11.9861 9.55328C12.0348 9.53678 12.0847 9.52328 12.1346 9.50978L12.4571 11.0709L12.6101 11.4838C12.5969 11.489 12.5842 11.4935 12.5711 11.4995L12.3858 11.0964L11.5121 9.76703C11.5567 9.74111 11.6022 9.71672 11.6486 9.69391ZM13.7186 9.78578C13.7621 9.80426 13.8111 9.80495 13.8551 9.78771C13.8992 9.77046 13.9347 9.73665 13.9541 9.69353C14.0006 9.71678 14.0463 9.74116 14.0913 9.76666L13.2149 11.099L13.0316 11.4992C13.0192 11.4932 13.0061 11.4887 12.9929 11.4838L13.1474 11.0672L13.4692 9.51016C13.5191 9.52328 13.5682 9.53678 13.6169 9.55291C13.6008 9.59735 13.6024 9.64629 13.6213 9.68962C13.6402 9.73296 13.675 9.76738 13.7186 9.78578ZM15.0157 11.0829C15.0338 11.1268 15.0683 11.1619 15.1118 11.1808C15.1553 11.1997 15.2045 11.2009 15.2489 11.1842C15.2654 11.2333 15.2793 11.2835 15.2924 11.3334L13.7313 11.6548L13.3177 11.8085C13.3124 11.7954 13.3083 11.783 13.3023 11.7703L13.7058 11.5847L15.0352 10.7105C15.0607 10.7552 15.0851 10.8005 15.1079 10.8467C15.0654 10.8669 15.0322 10.9026 15.015 10.9465C14.9979 10.9904 14.9981 11.0392 15.0157 11.0829ZM15.0157 12.9174C14.9782 13.0089 15.0198 13.1124 15.1087 13.1529C15.0857 13.1994 15.0613 13.2451 15.0356 13.2902L13.7032 12.4138L13.3027 12.2304C13.3087 12.2177 13.3132 12.2049 13.3181 12.1914L13.7351 12.3459L15.2924 12.668C15.2796 12.7176 15.2652 12.7667 15.2493 12.8154C15.2047 12.7994 15.1557 12.801 15.1122 12.82C15.0688 12.8389 15.0342 12.8738 15.0157 12.9174ZM13.7928 12.0928L15.3828 12.0005L13.7891 11.9075L13.3488 11.9488C13.3477 11.9353 13.3473 11.9214 13.3447 11.9083L13.7831 11.8337L15.2924 11.3334C15.3056 11.3829 15.3202 11.4324 15.3307 11.4827C15.2837 11.4903 15.2416 11.5159 15.2131 11.554C15.1847 11.5922 15.1721 11.6398 15.1781 11.687C15.1841 11.7337 15.208 11.7762 15.2447 11.8057C15.2814 11.8351 15.3281 11.8492 15.3749 11.8449C15.3783 11.8967 15.3828 11.948 15.3828 12.0005C15.3828 12.0527 15.3783 12.1033 15.3749 12.1547C15.328 12.151 15.2815 12.1653 15.2448 12.1948C15.2082 12.2243 15.1841 12.2667 15.1777 12.3133C15.1713 12.3606 15.1838 12.4085 15.2124 12.4467C15.241 12.485 15.2835 12.5104 15.3307 12.5177C15.3206 12.569 15.3059 12.6185 15.2924 12.668L13.7793 12.1659L13.3447 12.0924C13.3473 12.0789 13.3477 12.0654 13.3488 12.0515L13.7928 12.0928ZM13.9552 14.3075C13.9354 14.2646 13.8999 14.231 13.8559 14.2137C13.812 14.1964 13.763 14.1967 13.7193 14.2145C13.6755 14.2328 13.6404 14.2673 13.6214 14.3109C13.6025 14.3544 13.6011 14.4036 13.6177 14.4482C13.5689 14.4643 13.5187 14.4782 13.4688 14.4917L13.1467 12.9302L12.9933 12.5162C13.0064 12.5113 13.0192 12.5068 13.0319 12.5008L13.2176 12.9039L14.0913 14.2344C14.0467 14.2603 14.0013 14.2847 13.9552 14.3075ZM11.8848 14.2153C11.8412 14.1971 11.7921 14.1965 11.7481 14.2137C11.704 14.2309 11.6683 14.2645 11.6486 14.3075C11.6023 14.2846 11.5568 14.2602 11.5121 14.2344L12.3884 12.9013L12.5718 12.5015C12.5846 12.5075 12.5973 12.512 12.6108 12.5169L12.4567 12.9339L12.1342 14.4913C12.0845 14.4785 12.0352 14.4641 11.9864 14.4482C12.0028 14.4037 12.0013 14.3547 11.9824 14.3113C11.9634 14.2679 11.9285 14.2335 11.8848 14.2153ZM10.5873 12.9182C10.5691 12.8743 10.5347 12.8393 10.4912 12.8203C10.4477 12.8014 10.3985 12.8 10.3541 12.8165C10.338 12.7675 10.3235 12.718 10.3106 12.668L11.8717 12.3459L12.2849 12.1929C12.2898 12.2057 12.2947 12.2188 12.3007 12.2315L11.8979 12.4168L10.5674 13.2902C10.5418 13.2457 10.5175 13.2004 10.4947 13.1544C10.5375 13.1344 10.571 13.0988 10.5882 13.0548C10.6054 13.0108 10.6051 12.9619 10.5873 12.9182ZM10.2723 11.483C10.2824 11.432 10.2971 11.3825 10.3106 11.333L11.8237 11.8344L12.2579 11.9083C12.2557 11.9214 12.2549 11.9357 12.2534 11.9495L11.8106 11.9083L10.2209 12.0005L11.8147 12.0928L12.2542 12.0519C12.2557 12.0658 12.2564 12.0797 12.2587 12.0935L11.8214 12.1682L10.3109 12.6673C10.2978 12.6178 10.2832 12.569 10.2727 12.5188C10.3209 12.513 10.3648 12.4882 10.3947 12.4501C10.4247 12.4119 10.4383 12.3633 10.4324 12.3152C10.4266 12.267 10.4019 12.2231 10.3637 12.1931C10.3255 12.1632 10.277 12.1496 10.2288 12.1554C10.2258 12.1037 10.2209 12.053 10.2209 12.0005C10.2209 11.948 10.2258 11.8974 10.2288 11.8457C10.2766 11.8508 10.3245 11.8369 10.3621 11.807C10.3997 11.7771 10.424 11.7336 10.4298 11.6858C10.4355 11.6381 10.4222 11.5901 10.3927 11.5521C10.3632 11.5141 10.32 11.4893 10.2723 11.483ZM10.8719 13.7113C10.908 13.6809 10.931 13.6379 10.9363 13.5911C10.9415 13.5443 10.9285 13.4972 10.9001 13.4597C10.871 13.4221 10.8285 13.3973 10.7815 13.3903C10.7346 13.3834 10.6867 13.395 10.6481 13.4225C10.6197 13.3792 10.5928 13.3353 10.5674 13.2902L11.9928 12.5739L12.3513 12.3193C12.3592 12.3305 12.3693 12.341 12.3779 12.3519L12.0359 12.6358L10.9762 13.8257L12.1683 12.764L12.4503 12.4243C12.4608 12.4329 12.4709 12.4427 12.4822 12.4505L12.2261 12.812L11.5113 14.2344C11.4664 14.209 11.4223 14.1822 11.3789 14.1542C11.4053 14.1157 11.416 14.0685 11.4088 14.0224C11.4016 13.9763 11.377 13.9347 11.3401 13.9061C11.3032 13.8775 11.2568 13.864 11.2103 13.8685C11.1639 13.873 11.1209 13.8951 11.0902 13.9303C11.0133 13.8616 10.9404 13.7884 10.8719 13.7113ZM12.6472 14.5742C12.651 14.5272 12.6367 14.4807 12.6073 14.4439C12.5779 14.4072 12.5355 14.3831 12.4889 14.3765C12.4415 14.3704 12.3936 14.383 12.3552 14.4116C12.3169 14.4402 12.2913 14.4827 12.2838 14.5299C12.2328 14.5198 12.1837 14.5052 12.1342 14.4913L12.6356 12.9778L12.7094 12.5435C12.7229 12.5458 12.7368 12.5465 12.7507 12.5477L12.7094 12.9917L12.8013 14.5813L12.8943 12.9879L12.8531 12.5477C12.8669 12.5462 12.8808 12.5458 12.8943 12.5432L12.9689 12.9815L13.4688 14.4917C13.4189 14.5048 13.3698 14.5194 13.3196 14.5299C13.3119 14.4828 13.2862 14.4404 13.248 14.4118C13.2097 14.3832 13.1618 14.3706 13.1144 14.3765C13.0678 14.3829 13.0254 14.407 12.9961 14.4438C12.9668 14.4806 12.9527 14.5273 12.9569 14.5742C12.9052 14.5772 12.8542 14.582 12.8017 14.582C12.7496 14.582 12.6986 14.5772 12.6472 14.5742ZM14.5128 13.9299C14.4815 13.8965 14.4389 13.876 14.3933 13.8724C14.3476 13.8688 14.3023 13.8823 14.2661 13.9104C14.23 13.9384 14.2056 13.979 14.1977 14.0241C14.1899 14.0691 14.1991 14.1155 14.2237 14.1542C14.1802 14.1824 14.1359 14.2094 14.0909 14.2352L13.3754 12.8098L13.1201 12.4505C13.1313 12.4427 13.1418 12.4329 13.1523 12.4239L13.4369 12.7667L14.6264 13.826L13.5652 12.6332L13.2247 12.3515C13.2333 12.341 13.2434 12.3305 13.2509 12.3193L13.6136 12.5762L15.0352 13.2905C15.0099 13.3352 14.9832 13.3791 14.9553 13.4222C14.9164 13.395 14.8687 13.3837 14.8218 13.3906C14.7749 13.3975 14.7323 13.4221 14.7029 13.4593C14.6744 13.4969 14.6613 13.544 14.6666 13.5909C14.6718 13.6378 14.6949 13.6809 14.7311 13.7113C14.6632 13.7885 14.5904 13.8613 14.5128 13.9299ZM14.7311 10.2898C14.6952 10.3203 14.6723 10.3634 14.6672 10.4103C14.662 10.4571 14.675 10.5042 14.7033 10.5418C14.7324 10.5794 14.7749 10.6042 14.822 10.611C14.869 10.6178 14.9168 10.606 14.9553 10.5782C14.9838 10.6213 15.0101 10.6659 15.0359 10.7109L13.6106 11.4268L13.2517 11.6814C13.2438 11.6705 13.2341 11.66 13.2254 11.6492L13.5682 11.3645L14.6272 10.1754L13.4347 11.2363L13.1527 11.5768C13.1422 11.5682 13.1321 11.5584 13.1208 11.5505L13.3777 11.1883L14.0917 9.76703C14.1363 9.79253 14.1802 9.81878 14.2233 9.84691C14.1949 9.88535 14.1827 9.93337 14.1893 9.9807C14.1958 10.028 14.2206 10.0709 14.2584 10.1002C14.2961 10.1295 14.3438 10.1429 14.3913 10.1374C14.4388 10.132 14.4823 10.1082 14.5124 10.0712C14.5897 10.1394 14.6621 10.2122 14.7311 10.2898ZM12.9562 9.42728C12.9503 9.47537 12.9638 9.52382 12.9936 9.56197C13.0235 9.60012 13.0673 9.62485 13.1154 9.63072C13.1635 9.63659 13.2119 9.62311 13.2501 9.59326C13.2882 9.5634 13.3129 9.51962 13.3188 9.47153C13.3702 9.48166 13.4193 9.49666 13.4692 9.51016L12.9678 11.0225L12.8939 11.4572C12.8804 11.4545 12.8666 11.4542 12.8531 11.4527L12.8939 11.0094L12.8017 9.41941L12.7094 11.0132L12.7503 11.4527C12.7364 11.4542 12.7226 11.4545 12.7091 11.4572L12.6344 11.0195L12.1346 9.50978C12.1844 9.49666 12.2336 9.48203 12.2838 9.47153C12.2916 9.51856 12.3173 9.56072 12.3556 9.58913C12.3939 9.61754 12.4417 9.62996 12.4889 9.62378C12.5355 9.61804 12.578 9.5943 12.6073 9.55765C12.6366 9.521 12.6504 9.47434 12.6457 9.42766C12.6978 9.42428 12.7488 9.41941 12.8017 9.41941C12.8538 9.41903 12.9048 9.42428 12.9562 9.42728ZM11.0909 10.0712C11.1213 10.1073 11.1645 10.1303 11.2114 10.1355C11.2583 10.1406 11.3054 10.1275 11.3429 10.0989C11.3805 10.0698 11.4053 10.0274 11.4123 9.98038C11.4192 9.9334 11.4076 9.88557 11.3801 9.84691C11.4233 9.81858 11.4674 9.79169 11.5124 9.76628L12.2287 11.1913L12.4829 11.5498C12.4717 11.558 12.4616 11.5678 12.4507 11.5764L12.1664 11.2344L10.9773 10.175L12.0393 11.3672L12.3787 11.6488C12.3701 11.6597 12.3599 11.6702 12.3521 11.6814L11.9902 11.4249L10.5686 10.7105C10.5944 10.6659 10.6203 10.6213 10.6488 10.5782C10.7298 10.6344 10.8404 10.6194 10.9008 10.541C10.9295 10.5036 10.9425 10.4565 10.9373 10.4096C10.932 10.3627 10.9089 10.3196 10.8727 10.2894C10.9409 10.2122 11.0138 10.1393 11.0909 10.0712Z" fill="#F06432"/>
<path d="M12.8008 0.75C6.58778 0.75 1.55078 5.787 1.55078 12C1.55078 18.213 6.58778 23.25 12.8008 23.25C19.0138 23.25 24.0508 18.213 24.0508 12C24.0508 5.787 19.0138 0.75 12.8008 0.75ZM2.97091 8.31262H22.6307C23.0627 9.46087 23.3008 10.7029 23.3008 12C23.3008 13.2971 23.0627 14.5391 22.6307 15.6874H2.97091C2.53891 14.5391 2.30078 13.2971 2.30078 12C2.30078 10.7029 2.53891 9.46087 2.97091 8.31262Z" fill="#F06432"/>
</svg>
